<svg xmlns="http://www.w3.org/2000/svg" width="13.234" height="12.169" viewBox="0 0 13.234 12.169">
  <path id="Path_7387" data-name="Path 7387" d="M25.915,34.976H23.342V26.713h2.573Zm-1.356-9.3H24.54a1.439,1.439,0,1,1,.037-2.867,1.439,1.439,0,1,1-.018,2.867Zm11.675,9.3H33.293V30.7c0-1.1-.456-1.882-1.47-1.882a1.47,1.47,0,0,0-1.4,1.011,1.871,1.871,0,0,0-.062.673v4.474H27.488s.037-7.573,0-8.26h2.9v1.309a2.653,2.653,0,0,1,2.573-1.375c1.838,0,3.275,1.187,3.275,3.746Z" transform="translate(-23 -22.808)" fill="currentColor" />
</svg>
