<svg xmlns="http://www.w3.org/2000/svg" width="15.105" height="12.275" viewBox="0 0 15.105 12.275">
  <path id="Path_7391" data-name="Path 7391" d="M38.105,29.775a6.21,6.21,0,0,1-1.779.487,3.1,3.1,0,0,0,1.359-1.712,6.181,6.181,0,0,1-1.968.751A3.1,3.1,0,0,0,30.36,31.42a3.055,3.055,0,0,0,.08.7,8.811,8.811,0,0,1-6.39-3.235,3.105,3.105,0,0,0,.961,4.137,3.1,3.1,0,0,1-1.406-.386v.038a3.1,3.1,0,0,0,2.488,3.038,3.021,3.021,0,0,1-.818.109,3.067,3.067,0,0,1-.6-.055,3.1,3.1,0,0,0,2.9,2.153A6.269,6.269,0,0,1,23,39.208a8.808,8.808,0,0,0,13.561-7.418v-.42a6.294,6.294,0,0,0,1.544-1.594" transform="translate(-23 -28.326)" fill="currentColor" />
</svg>
